# xmcd CD database file
#
# Track frame offsets:
#	900
#	16651
#	29252
#	43278
#	57154
#	71480
#	88356
#	103432
#	115283
#	131334
#	149035
#	170261
#
# Disc length: 2444 seconds
#
# Revision: 1
# Processed by: cddbd v1.5.2PL0 Copyright (c) Steve Scherf et al.
#
# Submitted via: cddb-tool 0.4.7
#
DISCID=af09800c
DTITLE=J. J. Cale - Roll On
DYEAR=2009
DGENRE=Blues
TTITLE0=Who Knew
TTITLE1=Former Me
TTITLE2=Where The Sun Don'T Shine
TTITLE3=Down To Memphis
TTITLE4=Strange Days
TTITLE5=Cherry Street
TTITLE6=Fonda-Lina
TTITLE7=Leaving In The Morning
TTITLE8=Oh Mary
TTITLE9=Old Friend
TTITLE10=Roll On
TTITLE11=Bring Down The Curtain
EXTD=
EXTT0=
EXTT1=
EXTT2=
EXTT3=
EXTT4=
EXTT5=
EXTT6=
EXTT7=
EXTT8=
EXTT9=
EXTT10=
EXTT11=
PLAYORDER=
